<svg xmlns="http://www.w3.org/2000/svg" viewBox="0 0 358.77 283.34"><defs><style>.cls-1{fill:#00dccc;}</style></defs><g id="Calque_2" data-name="Calque 2"><g id="Calque_2-2" data-name="Calque 2"><polygon class="cls-1" points="178.63 34.24 178.63 48.42 192.8 48.42 192.8 83.95 164.45 67.58 164.45 0.13 192.8 0.13 192.8 34.24 178.63 34.24"/><polygon class="cls-1" points="250.3 48.42 250.3 101.09 236.4 109.12 221.95 100.78 221.95 48.42 250.3 48.42"/><path class="cls-1" d="M235.41.49,222,34.24H250.3L236.83.49A.76.76,0,0,0,235.41.49Z"/><path class="cls-1" d="M308.32,7.29v27H280V7.29A7.16,7.16,0,0,1,287.12.13h14.05A7.16,7.16,0,0,1,308.32,7.29Z"/><polygon class="cls-1" points="308.32 48.42 308.32 67.59 279.97 83.96 279.97 48.42 308.32 48.42"/><polygon class="cls-1" points="113.44 70.88 113.39 70.88 113.39 70.85 113.44 70.88"/><path class="cls-1" d="M114.41,99.22h-1v0C113.73,99.18,114.07,99.19,114.41,99.22Z"/><path class="cls-1" d="M114.41,155.85c-.34,0-.68,0-1,0v0Z"/><path class="cls-1" d="M358.77,70.85V212.51L236.08,283.34,113.46,212.55h-.07a14.18,14.18,0,1,1,0-28.35h14.17a14.18,14.18,0,0,0,0-28.35H99.21c-.34,0-.68,0-1,0H85a14.18,14.18,0,0,1-10-24.2A14.27,14.27,0,0,1,78,129.44a14.1,14.1,0,0,1,7.09-1.9h28.35v0a14.17,14.17,0,0,0,1-28.3c-.34,0-.68,0-1,0s-.68,0-1,0H99.21a14.17,14.17,0,1,1,0-28.34h14.23l28.14,16.24,94.5,54.56Z"/><path class="cls-1" d="M114.41,99.22h-2c.34,0,.68,0,1,0S114.07,99.19,114.41,99.22Z"/><path class="cls-1" d="M114.41,155.85c-.34,0-.68,0-1,0H98.19c.34,0,.68,0,1,0Z"/><path class="cls-1" d="M56.69,141.71a14.17,14.17,0,0,1-14.17,14.18H14.17a14.18,14.18,0,0,1,0-28.35H42.52A14.17,14.17,0,0,1,56.69,141.71Z"/><path class="cls-1" d="M114.41,155.85c-.34,0-.68,0-1,0H98.19c.34,0,.68,0,1,0Z"/><path class="cls-1" d="M70.87,85.05a14.14,14.14,0,1,1-4.15-10A14.12,14.12,0,0,1,70.87,85.05Z"/><path class="cls-1" d="M114.41,99.22h-2c.34,0,.68,0,1,0S114.07,99.19,114.41,99.22Z"/><polygon class="cls-1" points="236.55 141.76 236.39 141.85 236.23 141.76 236.55 141.76"/></g></g></svg>